<mxfile host="app.diagrams.net" modified="2024-03-20T12:50:33.521Z" agent="Mozilla/5.0 (Windows NT 10.0; Win64; x64) AppleWebKit/537.36 (KHTML, like Gecko) Chrome/120.0.0.0 Safari/537.36" etag="jqYmeqL022ujKnl0sTsM" version="24.0.7" type="github">
  <diagram name="Page-1" id="Amw0FL5CEn6CEXGqxPnB">
    <mxGraphModel dx="989" dy="517" grid="1" gridSize="10" guides="1" tooltips="1" connect="1" arrows="1" fold="1" page="1" pageScale="1" pageWidth="827" pageHeight="1169" math="0" shadow="0">
      <root>
        <mxCell id="0" />
        <mxCell id="1" parent="0" />
        <mxCell id="JWrdjlkLizISWo3fTnx8-1" value="" style="endArrow=none;html=1;rounded=0;" edge="1" parent="1">
          <mxGeometry width="50" height="50" relative="1" as="geometry">
            <mxPoint x="390" y="310" as="sourcePoint" />
            <mxPoint x="390" y="50" as="targetPoint" />
          </mxGeometry>
        </mxCell>
        <mxCell id="JWrdjlkLizISWo3fTnx8-2" value="" style="endArrow=none;html=1;rounded=0;" edge="1" parent="1">
          <mxGeometry width="50" height="50" relative="1" as="geometry">
            <mxPoint x="90" y="550" as="sourcePoint" />
            <mxPoint x="390" y="310" as="targetPoint" />
          </mxGeometry>
        </mxCell>
        <mxCell id="JWrdjlkLizISWo3fTnx8-3" value="" style="endArrow=none;html=1;rounded=0;" edge="1" parent="1">
          <mxGeometry width="50" height="50" relative="1" as="geometry">
            <mxPoint x="710" y="560" as="sourcePoint" />
            <mxPoint x="390" y="310" as="targetPoint" />
          </mxGeometry>
        </mxCell>
        <mxCell id="JWrdjlkLizISWo3fTnx8-4" value="" style="verticalLabelPosition=bottom;sketch=0;aspect=fixed;html=1;verticalAlign=top;strokeColor=none;align=center;outlineConnect=0;shape=mxgraph.citrix.database;" vertex="1" parent="1">
          <mxGeometry x="580" y="120" width="42.5" height="50" as="geometry" />
        </mxCell>
        <mxCell id="JWrdjlkLizISWo3fTnx8-5" value="" style="verticalLabelPosition=bottom;sketch=0;aspect=fixed;html=1;verticalAlign=top;strokeColor=none;align=center;outlineConnect=0;shape=mxgraph.citrix.database;" vertex="1" parent="1">
          <mxGeometry x="183.75" y="70" width="42.5" height="50" as="geometry" />
        </mxCell>
        <mxCell id="JWrdjlkLizISWo3fTnx8-6" value="" style="verticalLabelPosition=bottom;sketch=0;aspect=fixed;html=1;verticalAlign=top;strokeColor=none;align=center;outlineConnect=0;shape=mxgraph.citrix.database;" vertex="1" parent="1">
          <mxGeometry x="370" y="430" width="42.5" height="50" as="geometry" />
        </mxCell>
        <mxCell id="JWrdjlkLizISWo3fTnx8-7" value="Gestion de la Collecte" style="text;html=1;align=center;verticalAlign=middle;whiteSpace=wrap;rounded=0;fillColor=#dae8fc;strokeColor=#6c8ebf;" vertex="1" parent="1">
          <mxGeometry x="540" y="20" width="160" height="30" as="geometry" />
        </mxCell>
        <mxCell id="JWrdjlkLizISWo3fTnx8-8" value="Collecte" style="text;html=1;align=center;verticalAlign=middle;whiteSpace=wrap;rounded=0;fillColor=#d5e8d4;strokeColor=#82b366;" vertex="1" parent="1">
          <mxGeometry x="110" y="20" width="160" height="30" as="geometry" />
        </mxCell>
        <mxCell id="JWrdjlkLizISWo3fTnx8-9" value="Post Collecte" style="text;html=1;align=center;verticalAlign=middle;whiteSpace=wrap;rounded=0;fillColor=#fff2cc;strokeColor=#d6b656;" vertex="1" parent="1">
          <mxGeometry x="311.25" y="610" width="160" height="30" as="geometry" />
        </mxCell>
        <mxCell id="JWrdjlkLizISWo3fTnx8-10" value="" style="ellipse;whiteSpace=wrap;html=1;" vertex="1" parent="1">
          <mxGeometry x="60" y="180" width="290" height="80" as="geometry" />
        </mxCell>
        <mxCell id="JWrdjlkLizISWo3fTnx8-11" value="Omer Gestion" style="ellipse;whiteSpace=wrap;html=1;" vertex="1" parent="1">
          <mxGeometry x="540" y="230" width="120" height="80" as="geometry" />
        </mxCell>
        <mxCell id="JWrdjlkLizISWo3fTnx8-12" value="Odic" style="ellipse;whiteSpace=wrap;html=1;" vertex="1" parent="1">
          <mxGeometry x="331.25" y="504.5" width="120" height="80" as="geometry" />
        </mxCell>
        <mxCell id="JWrdjlkLizISWo3fTnx8-13" value="" style="endArrow=none;html=1;rounded=0;" edge="1" parent="1" source="JWrdjlkLizISWo3fTnx8-12" target="JWrdjlkLizISWo3fTnx8-6">
          <mxGeometry width="50" height="50" relative="1" as="geometry">
            <mxPoint x="230" y="540" as="sourcePoint" />
            <mxPoint x="280" y="490" as="targetPoint" />
          </mxGeometry>
        </mxCell>
        <mxCell id="JWrdjlkLizISWo3fTnx8-14" value="" style="endArrow=none;html=1;rounded=0;exitX=0.5;exitY=0;exitDx=0;exitDy=0;" edge="1" parent="1" source="JWrdjlkLizISWo3fTnx8-10" target="JWrdjlkLizISWo3fTnx8-5">
          <mxGeometry width="50" height="50" relative="1" as="geometry">
            <mxPoint x="260" y="210" as="sourcePoint" />
            <mxPoint x="310" y="160" as="targetPoint" />
          </mxGeometry>
        </mxCell>
        <mxCell id="JWrdjlkLizISWo3fTnx8-15" value="" style="endArrow=none;html=1;rounded=0;exitX=0.5;exitY=0;exitDx=0;exitDy=0;" edge="1" parent="1" source="JWrdjlkLizISWo3fTnx8-11" target="JWrdjlkLizISWo3fTnx8-4">
          <mxGeometry width="50" height="50" relative="1" as="geometry">
            <mxPoint x="490" y="240" as="sourcePoint" />
            <mxPoint x="540" y="190" as="targetPoint" />
          </mxGeometry>
        </mxCell>
        <mxCell id="JWrdjlkLizISWo3fTnx8-20" value="DMZ" style="text;html=1;align=center;verticalAlign=middle;whiteSpace=wrap;rounded=0;" vertex="1" parent="1">
          <mxGeometry x="350" y="10" width="60" height="30" as="geometry" />
        </mxCell>
        <mxCell id="JWrdjlkLizISWo3fTnx8-21" value="RSmart" style="verticalLabelPosition=bottom;sketch=0;aspect=fixed;html=1;verticalAlign=top;strokeColor=none;align=center;outlineConnect=0;shape=mxgraph.citrix.web_server;" vertex="1" parent="1">
          <mxGeometry x="110" y="190" width="25.5" height="30" as="geometry" />
        </mxCell>
        <mxCell id="JWrdjlkLizISWo3fTnx8-22" value="Service de suivi" style="verticalLabelPosition=bottom;sketch=0;aspect=fixed;html=1;verticalAlign=top;strokeColor=none;align=center;outlineConnect=0;shape=mxgraph.citrix.license_server;" vertex="1" parent="1">
          <mxGeometry x="270" y="190" width="22.94" height="30" as="geometry" />
        </mxCell>
        <mxCell id="JWrdjlkLizISWo3fTnx8-24" value="" style="endArrow=classic;html=1;rounded=0;" edge="1" parent="1" source="JWrdjlkLizISWo3fTnx8-21" target="JWrdjlkLizISWo3fTnx8-22">
          <mxGeometry width="50" height="50" relative="1" as="geometry">
            <mxPoint x="160" y="250" as="sourcePoint" />
            <mxPoint x="210" y="200" as="targetPoint" />
          </mxGeometry>
        </mxCell>
        <mxCell id="JWrdjlkLizISWo3fTnx8-25" value="Text" style="edgeLabel;html=1;align=center;verticalAlign=middle;resizable=0;points=[];" vertex="1" connectable="0" parent="JWrdjlkLizISWo3fTnx8-24">
          <mxGeometry x="-0.2625" relative="1" as="geometry">
            <mxPoint as="offset" />
          </mxGeometry>
        </mxCell>
        <mxCell id="JWrdjlkLizISWo3fTnx8-26" value="" style="endArrow=classic;html=1;rounded=0;" edge="1" parent="1" source="JWrdjlkLizISWo3fTnx8-22" target="JWrdjlkLizISWo3fTnx8-4">
          <mxGeometry width="50" height="50" relative="1" as="geometry">
            <mxPoint x="330" y="210" as="sourcePoint" />
            <mxPoint x="380" y="160" as="targetPoint" />
          </mxGeometry>
        </mxCell>
        <mxCell id="JWrdjlkLizISWo3fTnx8-27" value="Notification RIM" style="edgeLabel;html=1;align=center;verticalAlign=middle;resizable=0;points=[];" vertex="1" connectable="0" parent="JWrdjlkLizISWo3fTnx8-26">
          <mxGeometry x="-0.0264" relative="1" as="geometry">
            <mxPoint x="18" y="13" as="offset" />
          </mxGeometry>
        </mxCell>
        <mxCell id="JWrdjlkLizISWo3fTnx8-28" value="Mongo" style="text;html=1;align=center;verticalAlign=middle;whiteSpace=wrap;rounded=0;" vertex="1" parent="1">
          <mxGeometry x="175" y="90" width="60" height="30" as="geometry" />
        </mxCell>
        <mxCell id="JWrdjlkLizISWo3fTnx8-29" value="PG" style="text;html=1;align=center;verticalAlign=middle;whiteSpace=wrap;rounded=0;" vertex="1" parent="1">
          <mxGeometry x="361.25" y="450" width="60" height="30" as="geometry" />
        </mxCell>
        <mxCell id="JWrdjlkLizISWo3fTnx8-31" value="PG" style="text;html=1;align=center;verticalAlign=middle;whiteSpace=wrap;rounded=0;" vertex="1" parent="1">
          <mxGeometry x="571.25" y="140" width="60" height="30" as="geometry" />
        </mxCell>
        <mxCell id="JWrdjlkLizISWo3fTnx8-32" value="" style="endArrow=classic;html=1;rounded=0;" edge="1" parent="1" source="JWrdjlkLizISWo3fTnx8-22" target="JWrdjlkLizISWo3fTnx8-6">
          <mxGeometry width="50" height="50" relative="1" as="geometry">
            <mxPoint x="240" y="360" as="sourcePoint" />
            <mxPoint x="290" y="310" as="targetPoint" />
          </mxGeometry>
        </mxCell>
        <mxCell id="JWrdjlkLizISWo3fTnx8-33" value="" style="verticalLabelPosition=bottom;sketch=0;aspect=fixed;html=1;verticalAlign=top;strokeColor=none;align=center;outlineConnect=0;shape=mxgraph.citrix.process;" vertex="1" parent="1">
          <mxGeometry x="212.35" y="477.5" width="22.65" height="27" as="geometry" />
        </mxCell>
        <mxCell id="JWrdjlkLizISWo3fTnx8-34" value="" style="endArrow=classic;html=1;rounded=0;" edge="1" parent="1" source="JWrdjlkLizISWo3fTnx8-33" target="JWrdjlkLizISWo3fTnx8-22">
          <mxGeometry width="50" height="50" relative="1" as="geometry">
            <mxPoint x="190" y="400" as="sourcePoint" />
            <mxPoint x="240" y="350" as="targetPoint" />
          </mxGeometry>
        </mxCell>
        <mxCell id="JWrdjlkLizISWo3fTnx8-35" value="Extractions quotidiennes ou au fil de l&#39;eau" style="text;html=1;align=center;verticalAlign=middle;whiteSpace=wrap;rounded=0;" vertex="1" parent="1">
          <mxGeometry x="270" y="430" width="60" height="30" as="geometry" />
        </mxCell>
        <mxCell id="JWrdjlkLizISWo3fTnx8-37" value="Enquêtés" style="verticalLabelPosition=bottom;sketch=0;aspect=fixed;html=1;verticalAlign=top;strokeColor=none;align=center;outlineConnect=0;shape=mxgraph.citrix.users;" vertex="1" parent="1">
          <mxGeometry x="30" y="280" width="35.18" height="30" as="geometry" />
        </mxCell>
        <mxCell id="JWrdjlkLizISWo3fTnx8-38" value="" style="endArrow=classic;html=1;rounded=0;" edge="1" parent="1" source="JWrdjlkLizISWo3fTnx8-37" target="JWrdjlkLizISWo3fTnx8-21">
          <mxGeometry width="50" height="50" relative="1" as="geometry">
            <mxPoint x="70" y="170" as="sourcePoint" />
            <mxPoint x="120" y="120" as="targetPoint" />
          </mxGeometry>
        </mxCell>
        <mxCell id="JWrdjlkLizISWo3fTnx8-39" value="" style="endArrow=none;dashed=1;html=1;dashPattern=1 3;strokeWidth=2;rounded=0;fillColor=#d5e8d4;strokeColor=#82b366;" edge="1" parent="1" source="JWrdjlkLizISWo3fTnx8-21" target="JWrdjlkLizISWo3fTnx8-28">
          <mxGeometry width="50" height="50" relative="1" as="geometry">
            <mxPoint x="110" y="150" as="sourcePoint" />
            <mxPoint x="160" y="100" as="targetPoint" />
          </mxGeometry>
        </mxCell>
        <mxCell id="JWrdjlkLizISWo3fTnx8-40" value="" style="endArrow=none;dashed=1;html=1;dashPattern=1 3;strokeWidth=2;rounded=0;fillColor=#d5e8d4;strokeColor=#82b366;" edge="1" parent="1" source="JWrdjlkLizISWo3fTnx8-22" target="JWrdjlkLizISWo3fTnx8-28">
          <mxGeometry width="50" height="50" relative="1" as="geometry">
            <mxPoint x="145" y="200" as="sourcePoint" />
            <mxPoint x="203" y="130" as="targetPoint" />
          </mxGeometry>
        </mxCell>
      </root>
    </mxGraphModel>
  </diagram>
</mxfile>
